HIERARCHY
ROOT Hips
{
  OFFSET 13.6774 106.653 -34.4427
  CHANNELS 6 Xposition Yposition Zposition Zrotation Xrotation Yrotation
  JOINT ToSpine
  {
    OFFSET -2.69724 7.43032 -0.144315
    CHANNELS 3 Zrotation Xrotation Yrotation
    JOINT Spine
    {
      OFFSET -0.0310711 10.7595 1.96963
      CHANNELS 3 Zrotation Xrotation Yrotation
      JOINT Spine1
      {
        OFFSET 19.9056 3.91189 0.764692
        CHANNELS 3 Zrotation Xrotation Yrotation
        JOINT Neck
        {
          OFFSET 25.9749 7.03908 -0.130764
          CHANNELS 3 Zrotation Xrotation Yrotation
          JOINT Head
          {
            OFFSET 9.52751 0.295786 -0.907742
            CHANNELS 3 Zrotation Xrotation Yrotation
            End Site
            {
              OFFSET 16.4037 0.713936 2.7358
            }
          }
        }
        JOINT LeftShoulder
        {
          OFFSET 17.7449 4.33886 11.7777
          CHANNELS 3 Zrotation Xrotation Yrotation
          JOINT LeftArm
          {
            OFFSET 0.911315 1.27913 9.80584
            CHANNELS 3 Zrotation Xrotation Yrotation
            JOINT LeftForeArm
            {
              OFFSET 28.6126 1.18197 -3.53199
              CHANNELS 3 Zrotation Xrotation Yrotation
              JOINT LeftHand
              {
                OFFSET 27.5088 0.0218783 0.327423
                CHANNELS 3 Zrotation Xrotation Yrotation
                End Site
                {
                  OFFSET 18.6038 -0.000155887 0.382096
                }
              }
            }
          }
        }
        JOINT RightShoulder
        {
          OFFSET 17.1009 2.89543 -12.2328
          CHANNELS 3 Zrotation Xrotation Yrotation
          JOINT RightArm
          {
            OFFSET 1.4228 0.178766 -10.211
            CHANNELS 3 Zrotation Xrotation Yrotation
            JOINT RightForeArm
            {
              OFFSET 28.733 1.87905 2.64907
              CHANNELS 3 Zrotation Xrotation Yrotation
              JOINT RightHand
              {
                OFFSET 27.4588 0.290562 -0.101845
                CHANNELS 3 Zrotation Xrotation Yrotation
                End Site
                {
                  OFFSET 17.8396 -0.255518 -0.000602873
                }
              }
            }
          }
        }
      }
    }
  }
  JOINT LeftUpLeg
  {
    OFFSET -5.61296 -2.22332 -10.2353
    CHANNELS 3 Zrotation Xrotation Yrotation
    JOINT LeftLeg
    {
      OFFSET 2.56703 -44.7417 -7.93097
      CHANNELS 3 Zrotation Xrotation Yrotation
      JOINT LeftFoot
      {
        OFFSET 3.16933 -46.5642 -3.96578
        CHANNELS 3 Zrotation Xrotation Yrotation
        JOINT LeftToeBase
        {
          OFFSET 0.346054 -6.02161 12.8035
          CHANNELS 3 Zrotation Xrotation Yrotation
          End Site
          {
            OFFSET 0.134235 -1.35082 5.13018
          }
        }
      }
    }
  }
  JOINT RightUpLeg
  {
    OFFSET -5.7928 -1.72406 10.6446
    CHANNELS 3 Zrotation Xrotation Yrotation
    JOINT RightLeg
    {
      OFFSET -2.57161 -44.7178 -7.85259
      CHANNELS 3 Zrotation Xrotation Yrotation
      JOINT RightFoot
      {
        OFFSET -3.10148 -46.5936 -4.03391
        CHANNELS 3 Zrotation Xrotation Yrotation
        JOINT RightToeBase
        {
          OFFSET -0.0828122 -6.13587 12.8035
          CHANNELS 3 Zrotation Xrotation Yrotation
          End Site
          {
            OFFSET -0.131328 -1.35082 5.13018
          }
        }
      }
    }
  }
}
MOTION
Frames: 19
Frame Time: 0.03333333333333333
0.0000 93.1000 0.0000 -52.2691 -14.9402 -146.7296 -71.1804 -0.2115 88.1867 166.3439 50.4807 -72.7911 22.5388 26.4504 -7.5075 175.5772 17.2657 180.4811 -136.6348 53.9437 167.4749 1.2846 -19.7611 -10.4478 -105.1724 28.0932 -162.4862 -6.1323 49.5250 7.0272 11.1443 -1.8240 -2.0260 -1.7969 11.6411 22.0707 -76.4981 -36.8993 148.0983 46.4867 -6.5265 82.9950 11.3965 -2.2088 -15.8701 22.0658 11.4246 77.8704 -170.1413 53.4643 167.7897 5.4923 0.9765 -0.3618 -12.3596 -46.5383 5.1192 -15.4271 -3.2874 82.7094 155.9863 74.4095 -131.0963 -11.9496 -16.2098 0.9111 14.1228 -35.7965 -7.1189 
0.0000 93.1000 0.0000 -50.0671 -14.5508 -149.3407 -71.2181 -0.1833 88.2034 164.0457 50.0182 -74.9824 21.4758 26.2672 -9.0817 178.7307 17.2147 -175.3630 -139.5041 55.0564 172.5622 0.9442 -20.3635 -12.3976 -106.7668 27.7870 -159.8573 -5.4287 45.8684 5.5835 12.3516 -1.6129 -2.0448 -1.5231 10.8092 19.4427 -77.1006 -40.4590 151.9752 50.2236 -1.7094 88.4017 10.9687 -1.9738 -16.3066 27.1534 10.9846 79.1677 -167.0032 63.7127 163.3948 4.5235 -0.4095 -0.2912 -12.9920 -48.6116 4.4355 -20.0281 -3.7793 84.0386 125.5495 82.9321 -99.9099 -11.9232 -16.4674 0.8689 14.6226 -36.7464 -8.4181 
0.0000 93.1000 0.0000 -47.3945 -13.5383 -151.6473 -71.1989 -0.1129 88.2286 160.7217 51.3818 -76.4960 20.0105 25.8904 -9.0863 175.9326 16.2053 -179.0315 -139.3444 54.5296 171.4470 0.8541 -19.8735 -14.0628 -107.9478 25.0594 -155.6946 -3.4274 41.5655 2.7823 11.5519 -1.3841 -2.7846 -1.1204 8.4650 13.8178 -77.8134 -40.2656 155.9975 49.8436 3.0349 93.8791 11.4211 -1.7456 -16.1521 29.5435 11.7765 82.7573 -162.8523 73.7645 160.0458 4.0146 0.5452 -0.3506 -12.9477 -50.0137 5.5428 -25.8516 -5.8536 87.5779 35.1721 81.8998 -9.5214 -10.5458 -15.2164 0.7764 13.6805 -36.6290 -9.6534 
0.0000 93.1000 0.0000 -44.2281 -12.5269 -154.0869 -71.2114 -0.1700 88.2738 155.0952 52.2455 -74.0098 16.6999 24.5095 -11.9368 -177.5172 16.6140 175.2394 -137.2880 53.3766 171.3837 0.8221 -18.6052 -16.1738 -106.0764 20.8687 -151.1648 -2.9970 39.5238 -2.2972 10.3816 -1.0573 -2.4419 0.4945 7.7470 9.7141 -75.1915 -39.4949 154.5200 49.4352 6.2243 95.3041 13.5354 -2.4821 -13.9559 27.5424 14.0041 86.8379 -152.0473 80.5099 150.0908 4.2110 3.1025 -0.4288 -12.8820 -50.5889 6.7018 -32.3635 -8.0333 87.6665 12.3258 70.4917 13.1627 -10.7126 -15.8265 1.2497 14.0639 -34.6838 -10.2225 
0.0000 93.1000 0.0000 -41.5082 -15.2905 -153.0626 -71.1854 -0.1168 88.2725 151.2784 55.4857 -70.9798 16.1452 23.9351 -12.6422 -176.8703 15.6223 171.7597 -139.4948 52.5579 170.3045 0.4392 -17.7887 -19.2105 -100.8554 15.5618 -149.4316 1.9043 34.9765 -12.3679 11.6672 -0.6244 -2.3194 0.2166 6.4662 13.5519 -70.0198 -38.2837 144.4620 53.0562 3.1319 92.7025 11.3391 -1.8906 -12.2071 18.9767 14.2601 92.2823 -142.1792 82.3099 135.1003 5.0622 2.6538 -0.9303 -12.4009 -48.8682 8.6321 -42.5042 -10.3597 87.9853 5.6575 59.8358 17.5834 -9.0477 -14.5024 1.3779 11.8077 -30.2672 -8.5053 
0.0000 93.1000 0.0000 -40.9315 -18.3666 -149.9431 -71.1261 -0.0588 88.2565 146.9386 57.7566 -64.5427 15.2669 22.4076 -12.5315 -174.6778 15.2707 169.9136 -142.2707 51.6108 172.1254 -0.2240 -15.9286 -20.3043 -86.1217 3.0072 -147.4459 10.5734 20.2283 -24.0292 11.7556 -0.0373 -1.9559 -0.1077 5.6271 18.4666 -62.4821 -39.2382 131.5149 47.2426 -7.4702 81.2751 7.1799 -1.0571 -11.4600 9.8464 11.6475 94.9791 -140.0725 82.3190 134.2899 7.7132 3.3631 -1.9478 -14.5228 -53.0717 1.7212 -52.3600 -7.4902 91.2604 2.7321 51.5836 10.2655 -6.8388 -8.5125 1.3571 0.3515 -8.0515 4.5862 
0.0000 93.1000 0.0000 -38.5024 -23.0028 -144.0459 -71.1012 -0.1849 88.2251 143.8418 58.6814 -60.1030 14.0807 21.4028 -11.3110 -170.7778 15.8980 169.0609 -144.8262 53.3088 175.0467 0.2018 -13.1536 -21.0338 -87.3214 1.4938 -148.2744 18.9332 20.3513 -39.1140 11.2425 -0.6343 -0.9861 -0.5626 4.1525 21.7301 -55.4161 -45.2313 121.8161 29.3013 -17.7401 56.6969 3.8048 -1.3543 -9.5258 3.1617 7.6764 94.2157 -139.8916 82.7512 132.6980 8.0147 2.3193 -1.4410 -15.0122 -54.2082 2.1767 -59.8165 0.3302 94.0125 2.5458 55.4630 3.5858 -4.8717 1.1483 -0.1445 -18.9417 41.9626 10.5661 
0.0000 93.1000 0.0000 -32.3579 -29.3765 -144.4423 -71.0906 -0.2466 88.1687 136.0473 60.3164 -57.1880 12.1694 20.5021 -8.2833 -168.7304 17.6823 168.7778 -149.0905 55.8058 177.8664 0.5010 -11.8603 -18.9463 -92.8688 5.2002 -155.3559 32.4449 20.9944 -57.2007 11.7859 -0.8234 0.4901 -0.6517 2.9376 23.9700 -52.0841 -51.7433 110.1023 19.2077 -24.5395 32.3632 2.3657 -1.6087 -9.2607 -2.8972 1.1332 94.7740 -120.4826 83.8065 109.8588 6.1476 0.8473 -0.6985 -15.3786 -52.1271 0.9303 -55.9040 1.0812 91.9976 10.7349 74.4727 -8.3341 -7.2347 3.1715 0.0384 -6.7533 32.9408 -7.5401 
0.0000 93.1000 0.0000 -28.1080 -34.4775 -142.7000 -71.0478 -0.2302 88.0852 132.0571 60.4903 -55.7832 10.1457 18.4976 -4.7528 -168.3856 19.6105 168.0562 -151.6288 58.4018 177.8129 0.1031 -9.4356 -10.9782 -101.7147 18.4663 -162.5399 34.5971 16.5857 -65.6462 15.9030 -0.3041 0.5497 -0.9221 1.0295 28.5455 -66.2194 -55.7941 76.4645 17.3650 -25.8441 29.6196 0.8384 -0.6364 -6.8136 -10.5025 -4.9978 94.2333 -52.4032 83.5082 36.9128 5.3664 0.6069 -0.8312 -15.0338 -51.6574 -0.9415 -45.6925 1.3529 87.9883 153.7046 80.3974 -153.0820 -7.0581 -1.0116 0.3884 0.0102 25.5198 -14.9391 
0.0000 93.1000 0.0000 -25.3666 -36.9824 -139.6039 -70.9921 -0.2320 88.0322 129.2162 58.8010 -55.3906 6.6117 16.0235 -1.2219 -166.6224 18.8703 170.0591 -149.8206 57.2035 179.4798 0.2848 -6.6357 0.3198 -114.0619 39.1264 -157.1264 35.5640 12.5725 -71.6539 16.4315 -0.3172 0.2632 -0.9788 1.7057 24.2898 -76.8144 -60.1351 50.3365 16.4834 -19.1658 36.2053 0.0534 -0.3698 -4.5918 -20.0824 -7.3883 93.1443 -18.6915 76.4992 1.0148 4.5964 -1.4295 -0.9959 -14.5065 -48.5087 1.0930 -31.9400 2.0309 86.0538 169.5500 63.3130 -172.3369 -7.7866 -4.8460 0.9835 5.5044 9.0461 -20.2990 
0.0000 93.1000 0.0000 -25.5023 -37.8683 -142.0549 -70.9749 -0.2368 88.0002 125.8804 57.2541 -52.7858 3.7481 14.3407 -0.3081 -161.5784 16.2981 170.3248 -146.2834 53.8416 174.6253 0.1508 -5.5452 2.4089 -120.8158 40.8131 -148.3857 36.2559 11.5833 -72.8239 16.3588 -0.3172 0.0341 -0.8070 5.3542 17.9440 -92.7152 -63.6928 22.6769 12.7942 -12.2335 38.0665 0.1990 -0.0957 -2.5905 -35.0691 -9.2862 90.4822 -8.1129 64.6026 -11.3737 4.0017 -2.8825 -1.1952 -12.4331 -45.5894 1.3541 -17.5228 2.1245 87.9009 171.2591 54.0393 -175.0569 -8.2284 -5.8392 1.4746 10.0352 -10.5980 -21.3678 
0.0000 93.1000 0.0000 -31.6172 -35.7630 -144.1979 -70.9445 -0.3301 88.0250 126.8916 58.7690 -49.3863 5.7572 15.5368 -2.5168 -160.6408 16.0121 168.8686 -143.3728 52.2451 170.1257 0.5248 -5.1005 0.7993 -110.1859 33.9251 -145.2550 34.0677 13.0039 -69.4018 12.4922 -0.7808 0.0631 -0.8907 8.4801 15.5614 -104.0664 -61.0817 6.8297 6.2323 -3.7878 40.1142 0.3709 -0.3990 -0.7995 -51.8390 -8.1477 86.7452 -5.3356 49.3562 -16.6635 1.0651 -3.3068 -0.5114 -8.1060 -30.9199 3.1513 -5.6782 4.6862 89.0934 170.3748 57.2800 -170.4613 -8.1125 -7.7964 1.4935 11.8373 -23.2979 -18.4003 
0.0000 93.1000 0.0000 -35.5938 -33.0543 -144.1120 -70.8759 -0.2437 88.0029 128.9034 60.7459 -47.2628 7.6843 17.3239 0.1574 -159.5883 15.7871 173.0065 -139.7922 50.8989 167.6492 0.0293 -4.8329 -3.1128 -89.8242 29.7248 -144.1627 25.6102 14.8651 -58.4779 3.5602 -0.3051 -0.7649 -1.4907 9.0166 17.3521 -95.1536 -60.6740 21.1034 2.8972 0.3536 43.6973 0.1379 0.2722 0.2375 -65.7666 -3.3435 90.9655 4.5800 37.3642 -29.8578 -3.4006 2.2740 0.1998 0.2785 11.4498 -0.4724 0.6986 6.0825 84.0404 164.1637 71.6058 -162.0750 -9.0601 -8.4368 1.8481 12.4748 -30.8873 -14.7574 
0.0000 93.1000 0.0000 -34.2989 -33.9136 -143.2280 -70.9119 -0.2787 88.1204 128.9756 59.2514 -47.2151 9.5711 15.8001 4.5647 -161.6198 15.0326 174.5308 -137.3902 50.3011 166.4085 1.0107 -5.9851 -10.8917 -70.9952 28.4188 -144.0402 17.8763 18.4851 -41.0704 5.1109 -0.8622 -1.8189 -1.2407 6.5466 21.8807 -81.5352 -56.1566 49.4068 -1.6164 4.5359 46.1095 2.5411 -0.3794 1.1013 -66.9762 -5.1350 80.0198 -3.6644 44.8251 -9.0031 -1.9055 8.9576 0.8091 -3.8330 3.4356 16.3690 3.4798 -1.2050 78.8672 46.2959 84.0964 -42.3336 -9.4258 -5.4546 1.4264 14.2487 -35.9167 -15.4645 
0.0000 93.1000 0.0000 -41.3643 -33.6183 -148.6703 -70.9709 -0.1885 88.0877 136.0004 56.6207 -52.0006 13.8652 16.1923 2.2251 -165.5735 13.9071 174.0511 -137.4846 49.4683 166.1670 0.9948 -7.3424 -19.3852 -67.9932 36.8197 -139.3115 3.3111 25.6685 -17.1376 9.3993 -0.5652 -0.7108 -1.3289 3.2908 29.7051 -73.8099 -45.1787 78.2639 -8.0624 11.2932 44.9624 3.9388 -0.2168 1.1746 -63.5074 -3.8204 84.7041 -10.9302 70.4234 -1.0718 -1.0363 8.2997 0.2796 -5.4661 -1.4011 17.2739 -3.6981 -4.1933 71.1505 8.6226 71.9331 -3.2526 -7.6767 -4.6580 0.9860 12.7618 -31.5820 -14.2709 
0.0000 93.1000 0.0000 -50.6460 -27.4918 -150.6265 -71.1086 -0.1380 87.9874 145.7322 54.6858 -57.0535 16.0911 19.4124 -2.4355 -166.5264 12.4883 175.8570 -139.0039 48.4224 165.5522 1.4863 -5.1827 -27.3437 -90.1555 47.6957 -110.7946 -12.1338 43.1679 7.4193 15.2399 -0.3303 1.6769 -1.2580 1.9036 32.2115 -80.2446 -41.0046 98.3471 -10.5026 12.4421 45.7199 5.0148 -0.3032 2.8628 -56.9846 1.8118 87.9424 -154.1360 77.0827 139.6433 0.1714 6.3779 -0.0760 -5.8880 -13.3196 14.1916 -16.2006 2.2413 62.9847 7.4504 70.3726 -4.7125 -7.5705 -4.8799 0.0372 11.6288 -25.1768 -17.6402 
0.0000 93.1000 0.0000 -54.5500 -19.6773 -148.0164 -71.1359 -0.1376 88.0134 151.9684 55.9823 -58.4198 13.8198 22.5189 -3.1638 -166.9569 11.6348 177.7988 -139.8765 47.9399 166.0953 1.7943 -2.9696 -32.2118 -96.0886 48.2186 -90.6378 -18.6969 52.4561 12.0269 17.4472 -0.2253 1.4647 -0.7225 2.5693 30.8804 -85.4496 -46.6495 113.6899 -5.4093 6.6796 52.3281 4.9461 -0.1584 3.9484 -38.3344 6.5994 84.2141 -170.1063 54.1666 159.9174 3.1003 5.0669 -0.9121 -7.0920 -24.2071 11.6074 -23.7303 11.7086 66.7328 7.1223 68.3665 0.9265 -6.9306 -8.5069 0.2947 12.1994 -28.5524 -16.5654 
0.0000 93.1000 0.0000 -51.4102 -13.7694 -147.6801 -71.1473 -0.1737 88.1378 154.8450 59.9201 -58.1640 10.2506 26.0631 -1.5173 -167.8447 13.0237 178.5166 -140.6765 48.5694 165.6055 1.8863 -3.3812 -33.2025 -90.9702 45.8779 -72.2473 -21.1932 50.3081 9.7673 19.5975 -0.2286 1.0226 -0.2075 2.7520 22.9083 -82.6798 -52.1619 131.3399 -0.6271 0.7091 64.1537 4.5633 -0.1973 3.9981 -11.3737 5.6114 75.0777 -171.9054 40.7814 166.9142 8.1927 5.8238 -1.6865 -8.2552 -32.7651 13.4454 -28.7329 12.3729 70.0100 6.9805 66.4591 4.8497 -8.8170 -10.7685 0.8346 14.3568 -37.6123 -13.7645 
0.0000 93.1000 0.0000 -52.5488 -13.8934 -152.3829 -71.0970 -0.2650 88.1525 159.8528 62.4357 -64.7430 7.1221 28.5189 -1.9763 -165.7525 16.6773 175.7198 -138.5258 51.6667 164.6567 1.6315 -7.0146 -29.7246 -83.9793 48.5894 -63.1789 -14.6339 46.3252 0.2328 17.8548 -0.7288 0.2566 0.0422 1.8117 13.5488 -84.5888 -50.4295 140.2876 5.6172 -1.4516 78.2032 5.6893 -0.5459 5.9073 4.7593 0.5004 73.2856 -171.9208 45.5321 172.1314 9.0853 3.1704 -1.4501 -8.9154 -34.9628 12.6325 -44.4238 5.2208 75.0609 5.1911 60.0807 11.2214 -9.9443 -18.7381 1.2654 14.1354 -33.4886 -15.8520 
